<svg id="Слой_1" data-name="Слой 1" xmlns="http://www.w3.org/2000/svg" viewBox="0 0 391.51 76.96"><title>Безымянный-1</title><path d="M44,35.69l-5,6.48-18.84-24H30.43Zm-5,6.48,5,6.48L30.43,66.17H20.17Zm10.14,0L44,35.69,57.73,18.17H67.86Zm0,0,18.72,24H57.73L44,48.65Z" transform="translate(-20.17 -18.17)"/><path d="M102.78,25.25a22.94,22.94,0,0,1,7.14,16.92,22.75,22.75,0,0,1-7.14,16.92,23.76,23.76,0,0,1-33.84,0,23,23,0,0,1-7.08-16.92,23.12,23.12,0,0,1,7.08-16.92,23.76,23.76,0,0,1,33.84,0ZM74.53,30.89a15.35,15.35,0,0,0-4.62,11.28A16,16,0,0,0,97.15,53.51a15.4,15.4,0,0,0,4.68-11.34,16,16,0,0,0-27.3-11.28Z" transform="translate(-20.17 -18.17)"/><path d="M140.46,42.17a22.71,22.71,0,0,1-1.86,9.24,26.18,26.18,0,0,1-5.16,7.68,24.36,24.36,0,0,1-7.68,5.16,23,23,0,0,1-9.3,1.92h-16l8-8h8a16.51,16.51,0,0,0,6.24-1.2,15.73,15.73,0,0,0,5.1-3.48,17.29,17.29,0,0,0,3.42-5.1,15.79,15.79,0,0,0,0-12.36,16.39,16.39,0,0,0-3.48-5.1,16.72,16.72,0,0,0-5.1-3.48,16.43,16.43,0,0,0-6.18-1.2h-8l-8-8h16a23.25,23.25,0,0,1,9.3,1.92,24.78,24.78,0,0,1,7.62,5.16,25.23,25.23,0,0,1,5.22,7.68A22.71,22.71,0,0,1,140.46,42.17Z" transform="translate(-20.17 -18.17)"/><path d="M152,58.13l-4.08,8h-8.88l24-48,16,32h-9l-7-14.1L156,50.21Zm35,8h-8.94l-4-8h8.88Z" transform="translate(-20.17 -18.17)"/><path d="M212,20.8q-.53,1.16-1.42,3.49a29.68,29.68,0,0,1-.94,3,.61.61,0,0,1-.49.36l-3.3-.8a16.28,16.28,0,0,0-5.4-.55q-6,.7-5.41,6,.34,3,4.83,4.66,7.55,2.88,8.37,3.35A11.13,11.13,0,0,1,213.49,49,13.64,13.64,0,0,1,209,61.22a21.3,21.3,0,0,1-12.38,5.3q-3.54.41-3.89-.34-.28-1.23-1-3.57-.38-1-1.16-2.86a1.8,1.8,0,0,1-.16-.55q-.05-.46.44-.52.79-.09,2.43-.12t2.46-.12q10.16-1.18,9.4-7.74-.37-3.21-4.75-5.1-8-3.39-8.15-3.54a11,11,0,0,1-5.18-8.5,12.71,12.71,0,0,1,2.86-10.24,14.54,14.54,0,0,1,9.69-4.72,25.43,25.43,0,0,1,6.13.15,17.07,17.07,0,0,1,5.84,1.65A1.47,1.47,0,0,1,212,20.8Z" transform="translate(-20.17 -18.17)"/><rect x="18.83" y="17.53" width="10.14" height="12.94"/><path d="M251.13,58.13l-4.08,8h-8.88l24-48,16,32h-9l-7-14.1-7.08,14.1Zm35,8h-8.94l-4-8h8.88Z" transform="translate(-20.17 -18.17)"/><path d="M325.92,46.31A19.12,19.12,0,0,1,320,60.47,19.95,19.95,0,0,1,286,46.31v-28h8v28a11.92,11.92,0,0,0,20.4,8.4,11.58,11.58,0,0,0,3.6-8.4Z" transform="translate(-20.17 -18.17)"/><rect x="297.77" width="7.97" height="28.15"/><path d="M365.92,18.17v8H350v40h-8v-48Z" transform="translate(-20.17 -18.17)"/><rect x="305.75" width="24" height="8.04"/><path d="M404.33,25.25a22.94,22.94,0,0,1,7.14,16.92,22.75,22.75,0,0,1-7.14,16.92,23.76,23.76,0,0,1-33.84,0,23,23,0,0,1-7.08-16.92,23.12,23.12,0,0,1,7.08-16.92,23.76,23.76,0,0,1,33.84,0Zm-28.26,5.64a15.35,15.35,0,0,0-4.62,11.28,16,16,0,1,0,31.92,0,16,16,0,0,0-27.3-11.28Z" transform="translate(-20.17 -18.17)"/><path d="M35,85.31a10,10,0,0,1-2.42,6.64A8.28,8.28,0,0,1,26,94.8q-1.39,0-4.62-.19.2-4.13.2-9.11,0-4.69-.2-8.23H22.8l1.63,0,1.44,0q4.7,0,6.94,2.31A8,8,0,0,1,35,85.31Zm-2.32.6A6.9,6.9,0,0,0,30.84,81Q29,79,25,79a12,12,0,0,0-1.53.13q.11,3.1.11,6.38,0,3.6.15,7.3a10.5,10.5,0,0,0,2.05.21A6.37,6.37,0,0,0,31,90.92,7.65,7.65,0,0,0,32.73,85.91Z" transform="translate(-20.17 -18.17)"/><path d="M61.52,92.6l-.08,2H50.7q.19-4.13.19-9.11,0-4.69-.19-8.23H60.78l-.11,2q-3.66-.16-7.77-.16.08,2.07.08,5.58,3.54,0,6.32-.16v2q-3-.12-6.32-.12,0,3.42.12,6.42Q57.52,92.8,61.52,92.6Z" transform="translate(-20.17 -18.17)"/><path d="M87.84,77.26l-.07,1.88Q85.13,79,82.32,79q0,2.56,0,6.49,0,4.34.13,9.11H80q.16-4.54.16-9.11,0-3.88-.08-6.49-2,0-5.54.16l.07-1.91Z" transform="translate(-20.17 -18.17)"/><path d="M116.63,94.61h-2.81A29.37,29.37,0,0,0,112.14,89h-7.69a27.94,27.94,0,0,0-1.65,5.61h-2.69a91.5,91.5,0,0,1,3.44-8.52q3.44-8,3.44-8.83h3.09q0,.79,3.28,8.7T116.63,94.61Zm-5.1-7.35q-3.13-7.82-3.13-8.31h-.15q0,.41-3.24,8.31Z" transform="translate(-20.17 -18.17)"/><path d="M133.64,94.61h-2.53q.2-4.32.2-9.11t-.2-8.23h2.53q-.19,3.64-.19,8.23Q133.46,90.32,133.64,94.61Z" transform="translate(-20.17 -18.17)"/><path d="M161,92.65l-.08,2H150.48q.16-3.29.16-9.11,0-5-.16-8.23H153q-.16,2.69-.16,8.23,0,4.56-.15,7.3Q156.65,92.8,161,92.65Z" transform="translate(-20.17 -18.17)"/><path d="M178.21,94.61h-2.53q.2-4.32.2-9.11t-.2-8.23h2.53Q178,80.9,178,85.5,178,90.32,178.21,94.61Z" transform="translate(-20.17 -18.17)"/><path d="M208.43,94.61h-1.87q0-.23-4.37-6.38-4.57-6.46-5.21-8.15h-.13q.24,3.21.24,5.5,0,4.48.2,9h-2.24q.23-4.33.23-9.11t-.23-8.23h2.56q0,.37,4,6.08,4.21,6,4.8,7.81h.13q-.23-3.25-.23-5.52,0-4.93-.19-8.37h2.28q-.23,3.53-.23,8.23T208.43,94.61Z" transform="translate(-20.17 -18.17)"/><path d="M237.93,94.25a14,14,0,0,1-4.41.72q-4.68,0-7.05-2.5a8.61,8.61,0,0,1-2.38-6.17A9.18,9.18,0,0,1,233.84,77a12.34,12.34,0,0,1,3.13.39l-.33,2.21a15.85,15.85,0,0,0-3.54-.53,6.21,6.21,0,0,0-4.94,2,7.08,7.08,0,0,0-1.71,4.84,7.37,7.37,0,0,0,2,5.09A7.08,7.08,0,0,0,234,93.16a14.17,14.17,0,0,0,2-.2,20.15,20.15,0,0,1-.23-3.22,24.21,24.21,0,0,0-.19-3h2.42q-.11,1.76-.11,3.72Q237.82,91.27,237.93,94.25Z" transform="translate(-20.17 -18.17)"/><path d="M276,90.12Q276,95,269.13,95a15.77,15.77,0,0,1-4.45-.57l.47-2.09a13,13,0,0,0,4.25.77q4.53,0,4.53-2.56a2.74,2.74,0,0,0-1.17-2.21,16.9,16.9,0,0,0-3.09-1.64,13,13,0,0,1-3.4-2,4.39,4.39,0,0,1,0-6.36A6.23,6.23,0,0,1,270.62,77a15.16,15.16,0,0,1,4.34.41l-.32,2.12a14.21,14.21,0,0,0-4.3-.64q-3.42,0-3.42,2.29a2.24,2.24,0,0,0,1,1.85,17.86,17.86,0,0,0,2.83,1.41,14.2,14.2,0,0,1,3.6,2.05A4.61,4.61,0,0,1,276,90.12Z" transform="translate(-20.17 -18.17)"/><path d="M302.75,77.26l-.07,1.88Q300,79,297.23,79q0,2.56,0,6.49,0,4.34.13,9.11H294.9q.16-4.54.16-9.11,0-3.88-.08-6.49-2,0-5.54.16l.07-1.91Z" transform="translate(-20.17 -18.17)"/><path d="M331.29,77.26q-.05,2.52-.08,4.7t0,4.08q0,8.93-7,8.93a8.46,8.46,0,0,1-3.15-.53,5.08,5.08,0,0,1-2.16-1.61,7.06,7.06,0,0,1-1.24-2.74,17.06,17.06,0,0,1-.39-3.9q0-2,0-4.19t-.08-4.74h2.53q-.16,5.08-.16,8a25.6,25.6,0,0,0,.23,3.78,6.75,6.75,0,0,0,.81,2.43,3.33,3.33,0,0,0,1.46,1.38,5.34,5.34,0,0,0,2.24.41,5.63,5.63,0,0,0,2.32-.41A3.26,3.26,0,0,0,328,91.46a6.85,6.85,0,0,0,.8-2.41,24.89,24.89,0,0,0,.24-3.86q0-1.41,0-3.38t-.14-4.55Z" transform="translate(-20.17 -18.17)"/><path d="M361.54,85.31a10,10,0,0,1-2.42,6.64,8.28,8.28,0,0,1-6.67,2.85q-1.39,0-4.62-.19.2-4.13.2-9.11,0-4.69-.2-8.23h1.47l1.63,0,1.44,0q4.7,0,6.94,2.31A8,8,0,0,1,361.54,85.31Zm-2.32.6A6.9,6.9,0,0,0,357.34,81q-1.89-2-5.83-2a12,12,0,0,0-1.53.13q.11,3.1.11,6.38,0,3.6.15,7.3a10.5,10.5,0,0,0,2.05.21,6.37,6.37,0,0,0,5.23-2.09A7.65,7.65,0,0,0,359.23,85.91Z" transform="translate(-20.17 -18.17)"/><path d="M379.73,94.61H377.2q.2-4.32.2-9.11t-.2-8.23h2.53q-.19,3.64-.19,8.23Q379.54,90.32,379.73,94.61Z" transform="translate(-20.17 -18.17)"/><path d="M411.68,85.67a9.42,9.42,0,0,1-2.52,6.88,7.91,7.91,0,0,1-5.82,2.58,7.67,7.67,0,0,1-5.56-2.36,8.58,8.58,0,0,1-2.39-6.39,9.41,9.41,0,0,1,2.52-6.91,8,8,0,0,1,5.82-2.55,7.67,7.67,0,0,1,5.56,2.36A8.58,8.58,0,0,1,411.68,85.67Zm-2.37.31a7.39,7.39,0,0,0-1.81-5.32,5.61,5.61,0,0,0-4.16-1.89,5,5,0,0,0-3.89,2,7.86,7.86,0,0,0-1.71,5.3,7.37,7.37,0,0,0,1.82,5.34,5.63,5.63,0,0,0,4.16,1.88,5,5,0,0,0,3.88-2A7.93,7.93,0,0,0,409.31,86Z" transform="translate(-20.17 -18.17)"/></svg>